<svg width="18" height="26" viewBox="0 0 18 26" fill="none" xmlns="http://www.w3.org/2000/svg">
<path d="M8.62588 14.8574C8.20713 14.8606 7.8015 15.0039 7.47369 15.2645C7.14588 15.525 6.91476 15.8879 6.8172 16.2951C6.71964 16.7024 6.76126 17.1305 6.93542 17.5114C7.10958 17.8922 7.40625 18.2037 7.7781 18.3963V20.6208H9.33366V18.4663C9.73525 18.3017 10.0673 18.0029 10.2731 17.6208C10.4789 17.2387 10.5458 16.797 10.4623 16.3711C10.3787 15.9452 10.15 15.5615 9.81511 15.2855C9.48021 15.0094 9.05989 14.8581 8.62588 14.8574Z" fill="#000065"/>
<path d="M14.7778 10.5088V7.17996C14.8112 5.49365 14.1753 3.86276 13.0091 2.64418C11.843 1.4256 10.2417 0.718541 8.55556 0.677734C6.86941 0.718541 5.26808 1.4256 4.10197 2.64418C2.93586 3.86276 2.29993 5.49365 2.33333 7.17996V10.5088H0V23.7311C0 24.1436 0.163888 24.5393 0.455612 24.831C0.747335 25.1227 1.143 25.2866 1.55556 25.2866H15.5556C15.9681 25.2866 16.3638 25.1227 16.6555 24.831C16.9472 24.5393 17.1111 24.1436 17.1111 23.7311V10.5088H14.7778ZM3.88889 7.17996C3.85536 5.90614 4.32737 4.67083 5.20179 3.74395C6.07621 2.81706 7.28195 2.27395 8.55556 2.23329C9.82916 2.27395 11.0349 2.81706 11.9093 3.74395C12.7837 4.67083 13.2558 5.90614 13.2222 7.17996V10.5088H3.88889V7.17996ZM1.55556 23.7311V12.0644H15.5556V23.7311H1.55556Z" fill="#000065"/>
</svg>
