<svg id="FLECHE" xmlns="http://www.w3.org/2000/svg" width="25" height="29" viewBox="0 0 25 29">
  <g id="Polygone_1" data-name="Polygone 1" transform="translate(25) rotate(90)" fill="none">
    <path d="M12.337,3.729a2.5,2.5,0,0,1,4.325,0l10.16,17.517A2.5,2.5,0,0,1,24.66,25H4.34a2.5,2.5,0,0,1-2.163-3.754Z" stroke="none"/>
    <path d="M 14.50000095367432 9.965755462646484 L 8.680137634277344 20.00000190734863 L 20.31986236572266 20.00000190734863 L 14.50000095367432 9.965755462646484 M 14.5 2.482877731323242 C 15.34045219421387 2.482877731323242 16.18090438842773 2.898111343383789 16.66257858276367 3.728582382202148 L 26.822509765625 21.24570274353027 C 27.78916931152344 22.91236114501953 26.58663940429688 25.00000190734863 24.65993118286133 25.00000190734863 L 4.340070724487305 25.00000190734863 C 2.413360595703125 25.00000190734863 1.210830688476562 22.91236114501953 2.177490234375 21.24570274353027 L 12.3374195098877 3.728582382202148 C 12.81909561157227 2.898111343383789 13.65954780578613 2.482877731323242 14.5 2.482877731323242 Z" stroke="none" fill="#e8b474"/>
  </g>
</svg>
