<svg id="RETOUR_" data-name="RETOUR`" xmlns="http://www.w3.org/2000/svg" width="35" height="29" viewBox="0 0 35 29">
  <g id="Groupe_26" data-name="Groupe 26">
    <g id="Polygone_1" data-name="Polygone 1" transform="translate(0 29) rotate(-90)" fill="rgba(239,239,239,0.5)">
      <path d="M 24.6599292755127 24.50000190734863 L 4.340069770812988 24.50000190734863 C 3.616209983825684 24.50000190734863 2.968339920043945 24.12553215026855 2.607029914855957 23.49828147888184 C 2.245719909667969 22.87103271484375 2.246829986572266 22.12273216247559 2.610009908676147 21.49656295776367 L 12.76994037628174 3.979442119598389 C 13.13187026977539 3.355422019958496 13.77861976623535 2.982882022857666 14.5 2.982882022857666 C 15.22138023376465 2.982882022857666 15.86812973022461 3.355422019958496 16.23006057739258 3.979442119598389 L 26.38998985290527 21.49656295776367 C 26.75317001342773 22.12273216247559 26.75428009033203 22.87103271484375 26.39296913146973 23.49828147888184 C 26.03166007995605 24.12553215026855 25.3837890625 24.50000190734863 24.6599292755127 24.50000190734863 Z" stroke="none"/>
      <path d="M 14.5 3.482872009277344 C 13.95895957946777 3.482872009277344 13.47389984130859 3.76228141784668 13.20244979858398 4.230302810668945 L 3.042520523071289 21.74742126464844 C 2.770139694213867 22.217041015625 2.76930046081543 22.77827262878418 3.040290832519531 23.24871253967285 C 3.311269760131836 23.71914291381836 3.797170639038086 24.00000190734863 4.340070724487305 24.00000190734863 L 24.65993118286133 24.00000190734863 C 25.20282936096191 24.00000190734863 25.68873023986816 23.71914291381836 25.95970916748047 23.24871253967285 C 26.23069953918457 22.77827262878418 26.22986030578613 22.217041015625 25.95747947692871 21.74742126464844 L 15.79755020141602 4.230302810668945 C 15.52610015869141 3.76228141784668 15.04102993011475 3.482872009277344 14.5 3.482872009277344 M 14.5 2.482877731323242 C 15.34045219421387 2.482877731323242 16.18090438842773 2.898111343383789 16.66257858276367 3.728582382202148 L 26.822509765625 21.24570274353027 C 27.78916931152344 22.91236114501953 26.58663940429688 25.00000190734863 24.65993118286133 25.00000190734863 L 4.340070724487305 25.00000190734863 C 2.413360595703125 25.00000190734863 1.210830688476562 22.91236114501953 2.177490234375 21.24570274353027 L 12.3374195098877 3.728582382202148 C 12.81909561157227 2.898111343383789 13.65954780578613 2.482877731323242 14.5 2.482877731323242 Z" stroke="none" fill="#efefef"/>
    </g>
  </g>
  <g id="Groupe_27" data-name="Groupe 27" transform="translate(10)">
    <g id="Polygone_1-2" data-name="Polygone 1" transform="translate(0 29) rotate(-90)" fill="rgba(239,239,239,0.5)">
      <path d="M 24.6599292755127 24.50000190734863 L 4.340069770812988 24.50000190734863 C 3.616209983825684 24.50000190734863 2.968339920043945 24.12553215026855 2.607029914855957 23.49828147888184 C 2.245719909667969 22.87103271484375 2.246829986572266 22.12273216247559 2.610009908676147 21.49656295776367 L 12.76994037628174 3.979442119598389 C 13.13187026977539 3.355422019958496 13.77861976623535 2.982882022857666 14.5 2.982882022857666 C 15.22138023376465 2.982882022857666 15.86812973022461 3.355422019958496 16.23006057739258 3.979442119598389 L 26.38998985290527 21.49656295776367 C 26.75317001342773 22.12273216247559 26.75428009033203 22.87103271484375 26.39296913146973 23.49828147888184 C 26.03166007995605 24.12553215026855 25.3837890625 24.50000190734863 24.6599292755127 24.50000190734863 Z" stroke="none"/>
      <path d="M 14.5 3.482872009277344 C 13.95895957946777 3.482872009277344 13.47389984130859 3.76228141784668 13.20244979858398 4.230302810668945 L 3.042520523071289 21.74742126464844 C 2.770139694213867 22.217041015625 2.76930046081543 22.77827262878418 3.040290832519531 23.24871253967285 C 3.311269760131836 23.71914291381836 3.797170639038086 24.00000190734863 4.340070724487305 24.00000190734863 L 24.65993118286133 24.00000190734863 C 25.20282936096191 24.00000190734863 25.68873023986816 23.71914291381836 25.95970916748047 23.24871253967285 C 26.23069953918457 22.77827262878418 26.22986030578613 22.217041015625 25.95747947692871 21.74742126464844 L 15.79755020141602 4.230302810668945 C 15.52610015869141 3.76228141784668 15.04102993011475 3.482872009277344 14.5 3.482872009277344 M 14.5 2.482877731323242 C 15.34045219421387 2.482877731323242 16.18090438842773 2.898111343383789 16.66257858276367 3.728582382202148 L 26.822509765625 21.24570274353027 C 27.78916931152344 22.91236114501953 26.58663940429688 25.00000190734863 24.65993118286133 25.00000190734863 L 4.340070724487305 25.00000190734863 C 2.413360595703125 25.00000190734863 1.210830688476562 22.91236114501953 2.177490234375 21.24570274353027 L 12.3374195098877 3.728582382202148 C 12.81909561157227 2.898111343383789 13.65954780578613 2.482877731323242 14.5 2.482877731323242 Z" stroke="none" fill="#efefef"/>
    </g>
  </g>
</svg>
