<svg width="22" height="22" viewBox="0 0 22 22" fill="none" xmlns="http://www.w3.org/2000/svg">
<circle cx="10.625" cy="10.625" r="10.625" fill="#F0F0FF"/>
<path d="M16.2856 9.85125C16.5818 10.2387 16.5818 10.7619 16.2856 11.1488C15.3524 12.3669 13.1137 14.875 10.4999 14.875C7.8862 14.875 5.64745 12.3669 4.71432 11.1488C4.57019 10.9632 4.49194 10.7349 4.49194 10.5C4.49194 10.2651 4.57019 10.0368 4.71432 9.85125C5.64745 8.63312 7.8862 6.125 10.4999 6.125C13.1137 6.125 15.3524 8.63312 16.2856 9.85125V9.85125Z" fill="#000065" stroke="#000065" stroke-width="1.2" stroke-linecap="round" stroke-linejoin="round"/>
<path d="M10.5 12.375C11.5355 12.375 12.375 11.5355 12.375 10.5C12.375 9.46447 11.5355 8.625 10.5 8.625C9.46447 8.625 8.625 9.46447 8.625 10.5C8.625 11.5355 9.46447 12.375 10.5 12.375Z" stroke="#F9F9F9" stroke-width="1.2" stroke-linecap="round" stroke-linejoin="round"/>
</svg>
